<?xml version="1.0" standalone="no"?><!DOCTYPE svg PUBLIC "-//W3C//DTD SVG 1.1//EN" "http://www.w3.org/Graphics/SVG/1.1/DTD/svg11.dtd"><svg t="1565247649745" class="icon" viewBox="0 0 1024 1024" version="1.1" xmlns="http://www.w3.org/2000/svg" p-id="4768" xmlns:xlink="http://www.w3.org/1999/xlink" width="200" height="200"><defs><style type="text/css"></style></defs><path d="M426.666667 256V213.333333a42.666667 42.666667 0 0 1 42.666666-42.666666h85.333334a42.666667 42.666667 0 0 1 42.666666 42.666666v42.666667h16.384c77.781333 0 154.88 14.506667 227.413334 42.666667l3.754666 1.450666A21.333333 21.333333 0 0 1 837.12 341.333333H186.88a21.333333 21.333333 0 0 1-7.765333-41.216L182.869333 298.666667c72.533333-28.16 149.632-42.666667 227.413334-42.666667H426.666667z m426.666666 213.333333h85.333334a42.666667 42.666667 0 0 1 0 85.333334h-85.333334a42.666667 42.666667 0 0 1 0-85.333334zM85.333333 469.333333h85.333334a42.666667 42.666667 0 0 1 0 85.333334H85.333333a42.666667 42.666667 0 0 1 0-85.333334z" fill="#000000" opacity=".3" p-id="4769" data-spm-anchor-id="a313x.7781069.0.i13" class="selected"></path><path d="M213.333333 384h597.333334a42.666667 42.666667 0 0 1 42.666666 42.666667v298.666666a170.666667 170.666667 0 0 1-170.666666 170.666667H341.333333a170.666667 170.666667 0 0 1-170.666666-170.666667v-298.666666a42.666667 42.666667 0 0 1 42.666666-42.666667z" fill="#000000" p-id="4770"></path></svg>