<?xml version="1.0" standalone="no"?><!DOCTYPE svg PUBLIC "-//W3C//DTD SVG 1.1//EN" "http://www.w3.org/Graphics/SVG/1.1/DTD/svg11.dtd"><svg t="1565263620726" class="icon" viewBox="0 0 1024 1024" version="1.1" xmlns="http://www.w3.org/2000/svg" p-id="7497" xmlns:xlink="http://www.w3.org/1999/xlink" width="200" height="200"><defs><style type="text/css"></style></defs><path d="M477.128795 92.616374c18.909675-40.042995 49.857525-40.042995 68.766177 0l81.909521 173.405375c18.908652 40.037878 70.39835 78.265528 114.396423 84.943624l176.929642 26.855648c43.99705 6.677073 54.562686 38.043455 23.487947 69.702502L811.825646 580.719104c-31.097252 31.661094-50.659797 93.284593-43.496653 136.935766l31.508621 191.861726c7.164167 43.657312-18.842137 61.867046-57.800427 40.46255l-159.698189-87.727017c-38.959314-21.394263-102.70208-21.394263-141.661394 0L280.972253 949.979146c-38.951127 21.405519-64.968687 3.196809-57.795311-40.46255l31.489178-191.861726c7.173376-43.651173-12.402471-105.276718-43.488467-136.935766L80.409354 447.526593c-31.085996-31.659047-20.520359-63.028499 23.483854-69.704548L280.81978 350.966397c44.00319-6.67605 95.483678-44.905746 114.393353-84.942601L477.128795 92.616374 477.128795 92.616374z" p-id="7498" fill="#e9df11"></path></svg>