<?xml version="1.0" standalone="no"?><!DOCTYPE svg PUBLIC "-//W3C//DTD SVG 1.1//EN" "http://www.w3.org/Graphics/SVG/1.1/DTD/svg11.dtd"><svg t="1564037956325" class="icon" viewBox="0 0 1024 1024" version="1.1" xmlns="http://www.w3.org/2000/svg" p-id="11370" xmlns:xlink="http://www.w3.org/1999/xlink" width="200" height="200"><defs><style type="text/css"></style></defs><path d="M128 467.2a44.8 44.8 0 0 0-44.8 44.8v320a44.8 44.8 0 0 0 44.8 44.8h768a44.8 44.8 0 0 0 44.8-44.8V512a44.8 44.8 0 0 0-44.8-44.8H128zM812.992 384H896a128 128 0 0 1 128 128v320a128 128 0 0 1-128 128H128a128 128 0 0 1-128-128V512a128 128 0 0 1 128-128h83.648l213.696-214.592 0.064 0.128a96 96 0 1 1 173.248-0.128L813.056 384zM722.56 384L553.408 214.656a95.616 95.616 0 0 1-82.816 0L301.952 384h420.608zM512 160a32 32 0 1 0 0-64 32 32 0 0 0 0 64z m-320 384h101.76c23.36 0 41.92 5.12 55.36 15.68 14.08 11.52 21.44 28.16 21.44 49.92 0 11.84-3.2 22.4-9.6 31.68a49.664 49.664 0 0 1-29.12 20.16v0.64c19.84 4.48 31.04 17.6 33.6 40l3.84 36.8c1.28 14.08 6.08 25.28 13.76 33.6H342.4c-5.44-7.04-8.64-16.96-9.92-29.76l-2.88-28.16c-1.28-12.48-5.12-21.44-11.52-26.88-6.72-5.76-16.64-8.32-29.44-8.32h-59.2v93.12H192V544z m37.44 32v71.36h59.2c14.72 0 25.92-3.2 33.6-9.28 7.04-6.4 10.56-15.36 10.56-26.88 0-12.48-3.52-21.44-10.56-26.88C315.2 578.56 304 576 288.64 576h-59.2z m252.8 26.56c27.2 0 48 8.96 62.4 27.52 13.12 16.64 19.84 40 19.84 69.76H440.64c1.28 15.36 5.44 27.2 12.48 35.2 7.04 8 17.28 12.16 30.4 12.16 11.2 0 20.16-2.56 27.2-7.68a54.848 54.848 0 0 0 14.72-20.16h36.48c-3.84 15.36-11.52 28.48-23.04 38.72-14.72 12.48-32.96 18.88-55.04 18.88-24.64 0-44.16-7.68-58.56-22.72-15.36-15.68-23.04-37.12-23.04-64.64 0-24.64 7.04-45.12 21.76-61.76 14.08-16.96 33.6-25.28 58.24-25.28z m0.96 29.76c-12.16 0-21.44 3.2-28.48 10.24-6.72 6.72-11.2 16.64-13.44 29.76h85.12c-3.2-26.88-17.6-40-43.2-40z m195.52-29.76c41.28 0 62.08 22.4 62.08 67.84v102.08h-36.48v-98.88c0-27.2-12.48-40.64-37.44-40.64-8.96 0-16.96 3.2-23.68 9.6-7.68 7.04-12.16 17.28-13.44 30.4v99.52h-36.48V607.04h36.48v19.2c6.4-7.68 13.76-13.76 21.76-17.6a59.52 59.52 0 0 1 27.2-6.08z m152.32-48.96v53.44h36.8v30.08h-36.8v93.44c0 3.84 0.64 6.72 2.56 8.96 1.92 1.92 4.48 2.88 8.32 2.88h21.76v30.08h-27.84c-14.4 0-24.96-3.84-31.68-11.52-6.4-7.04-9.6-16.96-9.6-30.4v-93.44h-29.76v-30.08h29.76v-38.4l36.48-15.04z" p-id="11371" fill="#ffffff"></path></svg>