<?xml version="1.0" standalone="no"?><!DOCTYPE svg PUBLIC "-//W3C//DTD SVG 1.1//EN" "http://www.w3.org/Graphics/SVG/1.1/DTD/svg11.dtd"><svg t="1564036726696" class="icon" viewBox="0 0 1280 1024" version="1.1" xmlns="http://www.w3.org/2000/svg" p-id="1130" xmlns:xlink="http://www.w3.org/1999/xlink" width="250" height="200"><defs><style type="text/css"></style></defs><path d="M933.632 923.605333H90.368a30.122667 30.122667 0 0 1-27.392-17.877333l287.146667-229.674667-37.632-47.018666-252.245334 201.813333V270.762667L512 662.272l451.754667-391.509333v560.085333l-252.245334-201.813333-37.632 47.018666 287.146667 229.674667a30.122667 30.122667 0 0 1-27.392 17.92zM917.76 230.912L512 582.570667 106.24 230.912h811.52zM933.632 170.666667H90.368A90.453333 90.453333 0 0 0 0 261.034667V893.44a90.453333 90.453333 0 0 0 90.368 90.368h843.264A90.453333 90.453333 0 0 0 1024 893.44V261.034667A90.453333 90.453333 0 0 0 933.632 170.666667z" fill="#337ab7" p-id="1131" data-spm-anchor-id="a313x.7781069.0.i0" class="selected"></path><path d="M1024 256m-256 0a256 256 0 1 0 512 0 256 256 0 1 0-512 0Z" fill="#FD5739" p-id="1132"></path></svg>