<?xml version="1.0" standalone="no"?><!DOCTYPE svg PUBLIC "-//W3C//DTD SVG 1.1//EN" "http://www.w3.org/Graphics/SVG/1.1/DTD/svg11.dtd"><svg t="1564036873136" class="icon" viewBox="0 0 1024 1024" version="1.1" xmlns="http://www.w3.org/2000/svg" p-id="1354" width="200" height="200" xmlns:xlink="http://www.w3.org/1999/xlink"><defs><style type="text/css"></style></defs><path d="M916.736 148.224 107.264 148.224c-59.136 0-107.264 48.128-107.264 107.264l0 513.28c0 59.136 48.128 107.264 107.264 107.264l809.472 0c59.136 0 107.264-48.128 107.264-107.264L1024 255.488C1024 196.352 975.872 148.224 916.736 148.224zM658.688 497.664l317.184-262.144c0.768 3.328 1.024 6.656 1.024 10.24l0 532.992c0 5.632-1.024 10.752-2.816 15.872L658.688 497.664zM924.928 193.792c8.448 0 16.384 2.304 23.552 5.888L512 560.896 78.08 198.144c6.4-2.816 13.312-4.352 20.736-4.352L924.928 193.792zM49.92 794.624c-1.536-5.12-2.816-10.24-2.816-15.872L47.104 245.504c0-4.608 0.768-8.96 1.792-13.056l317.696 264.96L49.92 794.624zM99.072 830.72c-5.632 0-11.264-1.28-16.384-2.816l320-300.032 109.312 91.136 110.592-91.392 318.976 300.032c-5.12 1.792-10.752 3.072-16.64 3.072L99.072 830.72z" fill="#337ab7" p-id="1355"></path></svg>