<?xml version="1.0" standalone="no"?><!DOCTYPE svg PUBLIC "-//W3C//DTD SVG 1.1//EN" "http://www.w3.org/Graphics/SVG/1.1/DTD/svg11.dtd"><svg t="1563783311895" class="icon" viewBox="0 0 1024 1024" version="1.1" xmlns="http://www.w3.org/2000/svg" p-id="26024" xmlns:xlink="http://www.w3.org/1999/xlink" width="200" height="200"><defs><style type="text/css"></style></defs><path d="M490.395096 0H175.954342a31.505511 31.505511 0 0 0-31.489759 30.520964l-9.869101 317.236868c-2.213262 71.107939 34.112592 137.529433 93.949434 174.524779l-10.680368 382.744702a114.002692 114.002692 0 0 0 32.505811 83.308448 114.577668 114.577668 0 0 0 82.812236 34.955365c31.481882 0 60.8844-12.413171 82.80436-34.955365a114.002692 114.002692 0 0 0 32.505811-83.308448L437.812398 522.282611c59.828966-36.995346 96.15482-103.408964 93.949434-174.524779L521.884854 30.520964A31.505511 31.505511 0 0 0 490.395096 0zM392.12153 475.575691a31.505511 31.505511 0 0 0-17.832119 29.260743l11.215962 401.947312a51.503634 51.503634 0 0 1-14.697321 37.625456 52.07861 52.07861 0 0 1-37.633333 15.870902 52.031352 52.031352 0 0 1-37.633333-15.870902 51.472129 51.472129 0 0 1-14.697321-37.61758l11.215962-401.947311a31.505511 31.505511 0 0 0-17.83212-29.26862c-48.227061-23.219562-78.314824-72.612327-76.660785-125.856641L206.491058 63.011022h48.983194l9.065711 264.031937h33.135921L306.733718 63.011022h52.882001l9.065711 264.031937h33.135921L410.875186 63.011022h48.975317l8.923936 286.715905c1.654039 53.236437-28.433724 102.637079-76.652909 125.848764zM782.93952 0.708874c-64.940735 0-102.298395 93.705267-151.88807 236.6694-4.922736 14.193233-9.703697 27.992647-14.358636 40.980793-25.409195 70.989793-40.81539 143.271312-47.738726 180.04612a92.673461 92.673461 0 0 0 26.779684 83.985817l80.63048 77.913129v297.333261c0 58.608127 47.801737 106.291718 106.559515 106.291719s106.559515-47.683591 106.559515-106.291719V107.000592C889.499035 48.392465 841.697298 0.708874 782.93952 0.708874z m43.548492 916.92852c0 23.865425-19.533417 43.280696-43.548492 43.280696s-43.548493-19.415271-43.548493-43.280696V606.93792c0-8.537994-3.465606-16.72155-9.617058-22.652463L639.526433 497.078202a29.835719 29.835719 0 0 1-8.640387-27.023852c6.576775-34.939612 21.187456-103.550739 45.131645-170.460568 4.71795-13.17718 9.569799-27.173503 14.563423-41.571522 15.666115-45.171027 33.427347-96.375359 51.936835-135.536709C768.454861 67.658085 783.19944 63.719896 782.93952 63.719896c24.015076 0 43.548493 19.415271 43.548492 43.280696v810.636802z" fill="" p-id="26025"></path></svg>