<?xml version="1.0" standalone="no"?><!DOCTYPE svg PUBLIC "-//W3C//DTD SVG 1.1//EN" "http://www.w3.org/Graphics/SVG/1.1/DTD/svg11.dtd"><svg t="1564380533401" class="icon" viewBox="0 0 1024 1024" version="1.1" xmlns="http://www.w3.org/2000/svg" p-id="5531" xmlns:xlink="http://www.w3.org/1999/xlink" width="200" height="200"><defs><style type="text/css"></style></defs><path d="M136.994133 734.208s-6.144-93.815467-68.130133-122.641067c0 0 135.901867 34.696533 153.224533 122.641067H136.994133z m32.938667-119.569067s-1.979733-50.005333-19.387733-57.941333c-17.408-7.936 186.2144 6.0928 279.552 178.141867l-140.288-1.911467s-25.2928-124.962133-139.264-176.2304" fill="#3399cc" p-id="5532" data-spm-anchor-id="a313x.7781069.0.i1" class="selected"></path><path d="M270.9504 546.7136l-66.781867-100.283733s283.886933-16.128 416.938667 232.362666c0 0 132.693333-152.541867 289.211733-152.558933l-28.842666 213.947733 26.692266-213.947733S757.76 599.5008 751.616 734.0544H529.117867s-78.165333-222.344533-291.9424-267.776" fill="#99cccc" p-id="5533" data-spm-anchor-id="a313x.7781069.0.i2" class=""></path></svg>