<?xml version="1.0" standalone="no"?><!DOCTYPE svg PUBLIC "-//W3C//DTD SVG 1.1//EN" "http://www.w3.org/Graphics/SVG/1.1/DTD/svg11.dtd"><svg t="1563857805405" class="icon" viewBox="0 0 1161 1024" version="1.1" xmlns="http://www.w3.org/2000/svg" p-id="32480" xmlns:xlink="http://www.w3.org/1999/xlink" width="226.7578125" height="200"><defs><style type="text/css"></style></defs><path d="M961.723 172.585c-102.877-90.646-239.631-140.585-385.108-140.585s-282.24 49.929-385.108 140.585c-102.849 90.665-159.508 211.2-159.508 339.415v396.96c0 45.859 37.2 83.040 83.123 83.040h461.492c145.477 0 282.24-49.929 385.108-140.585 102.849-90.665 159.508-211.2 159.508-339.415 0-128.215-56.649-248.751-159.508-339.415zM576.615 899.692h-415.329c-20.414-0.021-36.957-16.565-36.979-36.977v-350.716c0-103.56 47.049-200.917 132.48-274.135 85.431-73.228 199.015-113.557 319.828-113.557 120.812 0 234.397 40.329 319.828 113.557 85.431 73.219 132.48 170.585 132.48 274.135 0 103.56-47.049 200.917-132.48 274.135-85.421 73.228-199.015 113.557-319.828 113.557zM798.154 576.615c35.686 0 64.615-28.929 64.615-64.615s-28.929-64.615-64.615-64.615c-35.686 0-64.615 28.929-64.615 64.615 0 35.686 28.929 64.615 64.615 64.615zM576.615 576.615c35.686 0 64.615-28.929 64.615-64.615s-28.929-64.615-64.615-64.615c-35.686 0-64.615 28.929-64.615 64.615 0 35.686 28.929 64.615 64.615 64.615zM355.077 576.615c35.686 0 64.615-28.929 64.615-64.615s-28.929-64.615-64.615-64.615c-35.686 0-64.615 28.929-64.615 64.615 0 35.686 28.929 64.615 64.615 64.615z" fill="#333333" p-id="32481"></path></svg>