<?xml version="1.0" standalone="no"?><!DOCTYPE svg PUBLIC "-//W3C//DTD SVG 1.1//EN" "http://www.w3.org/Graphics/SVG/1.1/DTD/svg11.dtd"><svg t="1564037807537" class="icon" viewBox="0 0 1117 1024" version="1.1" xmlns="http://www.w3.org/2000/svg" p-id="7861" xmlns:xlink="http://www.w3.org/1999/xlink" width="218.1640625" height="200"><defs><style type="text/css"></style></defs><path d="M1041.086309 386.232777H76.016364V266.797575c0-27.927171 22.80719-50.827452 50.64127-50.827451H990.491584c27.880626 0 50.64127 22.90028 50.64127 50.827451v119.435202z m0 510.694871c0 27.973716-22.80719 50.827452-50.641271 50.827451H126.611089a50.873997 50.873997 0 0 1-50.641271-50.827451V462.427409h965.069946v434.500239zM448.378646 91.461486c2.513445-5.073436 12.660318-12.706863 20.247199-12.706863h172.217556c5.119981 0 17.780299 7.633427 20.293744 12.706863l21.643558 48.26746H426.688543l21.690103-48.26746z m542.066392 48.26746h-218.157752a30.859524 30.859524 0 0 1-9.821055-12.660317l-27.880626-66.094305C719.411842 25.413726 681.430889 0 643.403391 0h-177.337537c-37.980953 0-75.961906 27.927171-91.182214 60.974324l-27.83408 66.094305a23.272643 23.272643 0 0 1-7.959244 12.660317H126.611089A125.625725 125.625725 0 0 0 0.007913 266.797575V896.927648A125.67227 125.67227 0 0 0 126.657634 1023.996276H990.491584A125.67227 125.67227 0 0 0 1117.09476 896.927648V266.797575a127.208265 127.208265 0 0 0-126.649722-127.068629z m-174.777546 724.198094a37.375864 37.375864 0 0 0 37.980953-38.167134v-241.337304a39.004949 39.004949 0 0 0-37.980953-38.120589 39.004949 39.004949 0 0 0-38.027498 38.120589v241.38385c0 20.34029 17.733754 38.120589 38.027498 38.120588z m-521.819193 0c22.80719 0 37.980953-15.266854 37.980953-38.167134v-241.337304a39.004949 39.004949 0 0 0-37.980953-38.120589 39.004949 39.004949 0 0 0-37.980953 38.120589v241.38385c0 20.34029 17.687208 38.120589 37.980953 38.120588z" fill="#ffffff" p-id="7862"></path></svg>