<?xml version="1.0" standalone="no"?><!DOCTYPE svg PUBLIC "-//W3C//DTD SVG 1.1//EN" "http://www.w3.org/Graphics/SVG/1.1/DTD/svg11.dtd"><svg t="1565246980219" class="icon" viewBox="0 0 1024 1024" version="1.1" xmlns="http://www.w3.org/2000/svg" p-id="1973" data-spm-anchor-id="a313x.7781069.0.i0" xmlns:xlink="http://www.w3.org/1999/xlink" width="200" height="200"><defs><style type="text/css"></style></defs><path d="M213.333333 576c-12.8 0-25.6-4.266667-34.133333-17.066667-17.066667-17.066667-12.8-46.933333 4.266667-59.733333C375.466667 341.333333 648.533333 341.333333 840.533333 499.2c17.066667 17.066667 21.333333 42.666667 4.266667 59.733333s-42.666667 21.333333-59.733333 4.266667c-157.866667-132.266667-388.266667-132.266667-546.133334 0-4.266667 12.8-17.066667 12.8-25.6 12.8z" p-id="1974" fill="#000000" data-spm-anchor-id="a313x.7781069.0.i1" class="selected"></path><path d="M59.733333 426.666667c-12.8 0-25.6-4.266667-34.133333-12.8-17.066667-17.066667-12.8-42.666667 4.266667-59.733334 273.066667-238.933333 686.933333-238.933333 960 0 17.066667 17.066667 21.333333 42.666667 4.266666 59.733334s-42.666667 21.333333-59.733333 4.266666c-243.2-213.333333-605.866667-213.333333-844.8 0-8.533333 4.266667-17.066667 8.533333-29.866667 8.533334zM661.333333 729.6c-8.533333 0-17.066667-4.266667-25.6-8.533333-72.533333-51.2-174.933333-51.2-247.466666 0-21.333333 12.8-46.933333 8.533333-59.733334-8.533334-12.8-21.333333-8.533333-46.933333 8.533334-59.733333 102.4-72.533333 243.2-72.533333 345.6 0 21.333333 12.8 25.6 38.4 8.533333 59.733333-4.266667 12.8-17.066667 17.066667-29.866667 17.066667zM512 896c-12.8 0-21.333333-4.266667-29.866667-12.8-4.266667-4.266667-8.533333-8.533333-8.533333-12.8 0-4.266667-4.266667-12.8-4.266667-17.066667 0-12.8 4.266667-21.333333 12.8-29.866666s25.6-12.8 38.4-12.8c4.266667 0 4.266667 0 8.533334 4.266666 4.266667 0 4.266667 0 8.533333 4.266667l4.266667 4.266667c8.533333 8.533333 12.8 21.333333 12.8 29.866666 0 4.266667 0 12.8-4.266667 17.066667s-4.266667 8.533333-8.533333 12.8c-8.533333 8.533333-17.066667 12.8-29.866667 12.8z" p-id="1975" fill="#2c2c2c"></path></svg>