<?xml version="1.0" standalone="no"?><!DOCTYPE svg PUBLIC "-//W3C//DTD SVG 1.1//EN" "http://www.w3.org/Graphics/SVG/1.1/DTD/svg11.dtd"><svg t="1563783521718" class="icon" viewBox="0 0 1024 1024" version="1.1" xmlns="http://www.w3.org/2000/svg" p-id="26820" xmlns:xlink="http://www.w3.org/1999/xlink" width="200" height="200"><defs><style type="text/css"></style></defs><path d="M654.222222 796.444444h-170.666666v-164.977777c5.688889-5.688889 11.377778-5.688889 17.066666-11.377778l221.866667-267.377778c17.066667-22.755556 17.066667-45.511111 5.688889-62.577778-11.377778-22.755556-28.444444-34.133333-51.2-34.133333H233.244444c-22.755556 0-39.822222 11.377778-51.2 34.133333-11.377778 17.066667-11.377778 39.822222 5.688889 56.888889l221.866667 267.377778c5.688889 5.688889 11.377778 5.688889 17.066667 11.377778v170.666666h-170.666667c-17.066667 0-28.444444 11.377778-28.444444 28.444445s11.377778 28.444444 28.444444 28.444444h398.222222c17.066667 0 28.444444-11.377778 28.444445-28.444444s-11.377778-28.444444-28.444445-28.444445zM233.244444 312.888889H682.666667l-227.555556 267.377778-221.866667-267.377778z" fill="#333333" p-id="26821"></path><path d="M739.555556 113.777778c-62.577778 0-119.466667 34.133333-147.911112 85.333333-5.688889 11.377778-5.688889 28.444444 11.377778 39.822222 11.377778 5.688889 28.444444 5.688889 39.822222-11.377777 22.755556-34.133333 56.888889-56.888889 96.711112-56.888889 62.577778 0 113.777778 51.2 113.777777 113.777777s-51.2 113.777778-113.777777 113.777778h-22.755556c-17.066667 0-28.444444 5.688889-34.133333 22.755556 0 17.066667 5.688889 28.444444 22.755555 34.133333h28.444445c96.711111 0 170.666667-73.955556 170.666666-170.666667S836.266667 113.777778 739.555556 113.777778z" fill="#333333" p-id="26822"></path></svg>