<?xml version="1.0" standalone="no"?><!DOCTYPE svg PUBLIC "-//W3C//DTD SVG 1.1//EN" "http://www.w3.org/Graphics/SVG/1.1/DTD/svg11.dtd"><svg t="1563783546441" class="icon" viewBox="0 0 1024 1024" version="1.1" xmlns="http://www.w3.org/2000/svg" p-id="27325" xmlns:xlink="http://www.w3.org/1999/xlink" width="200" height="200"><defs><style type="text/css"></style></defs><path d="M739.555556 221.866667c-62.577778 0-113.777778 51.2-113.777778 113.777777V398.222222H398.222222V335.644444c0-62.577778-51.2-113.777778-113.777778-113.777777s-113.777778 51.2-113.777777 113.777777V341.333333c-11.377778 0-17.066667-5.688889-28.444445-5.688889-45.511111 0-85.333333 39.822222-85.333333 85.333334v170.666666c0 45.511111 39.822222 85.333333 85.333333 85.333334 11.377778 0 17.066667 0 28.444445-5.688889v5.688889c0 62.577778 51.2 113.777778 113.777777 113.777778s113.777778-51.2 113.777778-113.777778V625.777778h227.555556v51.2c0 62.577778 51.2 113.777778 113.777778 113.777778s113.777778-51.2 113.777777-113.777778v-5.688889c11.377778 5.688889 17.066667 5.688889 28.444445 5.688889 45.511111 0 85.333333-39.822222 85.333333-85.333334v-170.666666c0-45.511111-39.822222-85.333333-85.333333-85.333334-11.377778 0-17.066667 0-28.444445 5.688889v-5.688889c0-62.577778-51.2-113.777778-113.777777-113.777777z m0 512c-34.133333 0-56.888889-22.755556-56.888889-56.888889v-341.333334c0-34.133333 22.755556-56.888889 56.888889-56.888888s56.888889 22.755556 56.888888 56.888888v341.333334c0 34.133333-22.755556 56.888889-56.888888 56.888889z m-455.111112 0c-34.133333 0-56.888889-22.755556-56.888888-56.888889v-341.333334c0-34.133333 22.755556-56.888889 56.888888-56.888888s56.888889 22.755556 56.888889 56.888888v341.333334c0 34.133333-22.755556 56.888889-56.888889 56.888889z m597.333334-113.777778c-17.066667 0-28.444444-11.377778-28.444445-28.444445v-170.666666c0-17.066667 11.377778-28.444444 28.444445-28.444445s28.444444 17.066667 28.444444 28.444445v170.666666c0 17.066667-11.377778 28.444444-28.444444 28.444445z m-739.555556 0c-17.066667 0-28.444444-11.377778-28.444444-28.444445v-170.666666c0-17.066667 11.377778-28.444444 28.444444-28.444445s28.444444 17.066667 28.444445 28.444445v170.666666c0 17.066667-11.377778 28.444444-28.444445 28.444445zM398.222222 568.888889V455.111111h227.555556v113.777778H398.222222z" fill="#333333" p-id="27326"></path></svg>