<?xml version="1.0" standalone="no"?><!DOCTYPE svg PUBLIC "-//W3C//DTD SVG 1.1//EN" "http://www.w3.org/Graphics/SVG/1.1/DTD/svg11.dtd"><svg t="1564037604449" class="icon" viewBox="0 0 1024 1024" version="1.1" xmlns="http://www.w3.org/2000/svg" p-id="2826" xmlns:xlink="http://www.w3.org/1999/xlink" width="200" height="200"><defs><style type="text/css"></style></defs><path d="M828.077 964.075H600.371c-20.501 0-37.123-16.604-37.123-37.123v-232.71H458.675v232.71c0 20.519-16.622 37.123-37.123 37.123H197.615c-20.501 0-37.123-16.604-37.123-37.123V540.383c0-20.519 16.622-37.123 37.123-37.123s37.123 16.604 37.123 37.123v349.445h149.69v-232.71c0-20.519 16.622-37.123 37.123-37.123H600.37c20.501 0 37.123 16.604 37.123 37.123v232.71h153.46V540.383c0-20.519 16.622-37.123 37.123-37.123 20.501 0 37.123 16.604 37.123 37.123v386.569c0.002 20.519-16.62 37.123-37.122 37.123zM827.951 317.86c-20.501 0-37.123-16.604-37.123-37.123V169.149h-116.21c-20.501 0-37.123-16.604-37.123-37.123s16.622-37.123 37.123-37.123h153.333c20.501 0 37.123 16.604 37.123 37.123v148.711c0 20.519-16.622 37.123-37.123 37.123z" p-id="2827" fill="#ffffff" data-spm-anchor-id="a313x.7781069.0.i13" class="selected"></path><path d="M38.916 598.497c-9.571 0-19.142-3.662-26.392-11.021-14.429-14.574-14.284-38.102 0.29-52.495L487.061 66.045c14.465-14.284 37.74-14.284 52.205 0l474.266 468.936c14.574 14.393 14.719 37.921 0.29 52.495-14.374 14.61-37.903 14.791-52.495 0.29L513.163 144.642 65.018 587.766a37.069 37.069 0 0 1-26.102 10.731z" p-id="2828" data-spm-anchor-id="a313x.7781069.0.i12" fill="#ffffff" class="selected"></path></svg>