<?xml version="1.0" standalone="no"?><!DOCTYPE svg PUBLIC "-//W3C//DTD SVG 1.1//EN" "http://www.w3.org/Graphics/SVG/1.1/DTD/svg11.dtd"><svg class="icon" width="200px" height="200.00px" viewBox="0 0 1024 1024" version="1.1" xmlns="http://www.w3.org/2000/svg"><path fill="#333333" d="M916.4 416h-0.8c-24 0-43.6 19.6-43.6 43.6 0 2.4-2 4.4-4.4 4.4H156.4c-2.4 0-4.4-2-4.4-4.4 0-24-19.6-43.6-43.6-43.6h-0.8c-24 0-43.6 19.6-43.6 43.6v360.8c0 24 19.6 43.6 43.6 43.6h0.8c24 0 43.6-19.6 43.6-43.6V808c0-4.4 3.6-8 8-8h704c4.4 0 8 3.6 8 8v12.4c0 24 19.6 43.6 43.6 43.6h0.8c24 0 43.6-19.6 43.6-43.6V459.6c0-24-19.6-43.6-43.6-43.6z"  /><path fill="#333333" d="M168 428h45c4.4 0 8-3.6 8-8v-26c0-17.6 14.4-32 32-32H448c17.6 0 32 14.4 32 32v26c0 4.4 3.6 8 8 8h48c4.4 0 8-3.6 8-8v-26c0-17.6 14.4-32 32-32h195c17.6 0 32 14.4 32 32v26c0 4.4 3.6 8 8 8H856c8.8 0 16-7.2 16-16v-188c0-35.2-28.8-64-64-64H216c-35.2 0-64 28.8-64 64v188c0 8.8 7.2 16 16 16z"  /></svg>