<?xml version="1.0" standalone="no"?><!DOCTYPE svg PUBLIC "-//W3C//DTD SVG 1.1//EN" "http://www.w3.org/Graphics/SVG/1.1/DTD/svg11.dtd"><svg t="1564069817909" class="icon" viewBox="0 0 1024 1024" version="1.1" xmlns="http://www.w3.org/2000/svg" p-id="13717" xmlns:xlink="http://www.w3.org/1999/xlink" width="200" height="200"><defs><style type="text/css"></style></defs><path d="M512 896a384 384 0 1 0 0-768 384 384 0 0 0 0 768z m0 76.8a460.8 460.8 0 1 1 0-921.6 460.8 460.8 0 0 1 0 921.6z m-22.4768-161.792v-46.1824a239.6672 239.6672 0 0 1-67.6864-13.6192 167.1168 167.1168 0 0 1-51.6608-29.5936 128.8704 128.8704 0 0 1-33.0752-43.4176 129.1264 129.1264 0 0 1-11.7248-55.4496h74.24c1.8432 21.7088 10.6496 39.4752 26.4192 53.3504 15.7184 13.9264 36.864 22.3744 63.488 25.3952v-165.5296l-31.1296-8.0896c-39.424-9.7792-69.5296-26.112-90.3168-48.9984-20.736-22.8352-31.1296-51.3024-31.1296-85.4016 0-19.8144 3.4816-37.9392 10.496-54.4256a124.928 124.928 0 0 1 30.2592-43.008c13.2096-12.288 29.184-22.1696 47.9744-29.7984a222.2592 222.2592 0 0 1 63.8464-14.4896v-48.64h47.9744v48.64c22.8864 1.8432 43.5712 6.6048 62.1056 14.1824 18.5856 7.5776 34.5088 17.4592 47.7696 29.696a132.8128 132.8128 0 0 1 43.0592 96.4608h-73.1136a75.4688 75.4688 0 0 0-23.1424-50.944 94.9248 94.9248 0 0 0-24.832-16.7936 101.888 101.888 0 0 0-31.8464-8.9088v156.4672l32.5632 7.3216c43.6224 10.9568 76.032 27.648 97.28 49.8688 21.248 22.3232 31.8464 51.712 31.8464 88.3712 0 21.248-3.584 40.448-10.8544 57.6a126.4128 126.4128 0 0 1-31.488 44.5952 155.648 155.648 0 0 1-50.7392 30.3104 251.904 251.904 0 0 1-68.608 14.4896v46.592H489.472z m135.4752-186.5216c0-20.992-7.0144-37.888-20.992-50.7392-14.0288-12.8-36.1984-22.4256-66.56-28.672v157.44c28.0576-1.5872 49.664-9.216 64.8192-22.7328 15.1552-13.5168 22.7328-31.9488 22.7328-55.296zM411.8528 388.2496c0 18.8928 6.6048 34.5088 19.7632 46.8992 13.2096 12.3392 32.512 21.248 57.9072 26.624V315.392c-11.1616 0.7168-21.504 2.9696-30.976 6.8096a81.7664 81.7664 0 0 0-24.6784 15.4112 67.7376 67.7376 0 0 0-22.016 50.5856z" p-id="13718"></path></svg>