<?xml version="1.0" standalone="no"?><!DOCTYPE svg PUBLIC "-//W3C//DTD SVG 1.1//EN" "http://www.w3.org/Graphics/SVG/1.1/DTD/svg11.dtd"><svg class="icon" width="200px" height="200.00px" viewBox="0 0 1024 1024" version="1.1" xmlns="http://www.w3.org/2000/svg"><path fill="#333333" d="M460.8 317.44c3.413333 0 10.24 0 13.653333-3.413333l34.133334-34.133334c6.826667-6.826667 6.826667-17.066667 0-23.893333s-17.066667-6.826667-23.893334 0l-34.133333 34.133333c-6.826667 6.826667-6.826667 17.066667 0 23.893334 0 0 6.826667 3.413333 10.24 3.413333zM515.413333 413.013333c3.413333 3.413333 6.826667 3.413333 13.653334 3.413334s10.24 0 13.653333-3.413334l34.133333-34.133333c6.826667-6.826667 6.826667-17.066667 0-23.893333s-17.066667-6.826667-23.893333 0l-34.133333 34.133333c-6.826667 6.826667-6.826667 17.066667-3.413334 23.893333zM610.986667 276.48l34.133333-34.133333c6.826667-6.826667 6.826667-17.066667 0-23.893334s-17.066667-6.826667-23.893333 0l-34.133334 34.133334c-6.826667 6.826667-6.826667 17.066667 0 23.893333 3.413333 3.413333 6.826667 3.413333 13.653334 3.413333s6.826667 0 10.24-3.413333z"  /><path fill="#333333" d="M972.8 505.173333H921.6V88.746667c0-40.96-34.133333-78.506667-78.506667-78.506667-20.48 0-40.96 6.826667-54.613333 23.893333l-47.786667 61.44-13.653333-13.653333c-3.413333-3.413333-10.24-6.826667-17.066667-3.413333l-119.466666 34.133333c-6.826667 0-10.24 6.826667-10.24 13.653333s0 13.653333 3.413333 17.066667l136.533333 136.533333c3.413333 3.413333 6.826667 3.413333 13.653334 3.413334h3.413333c6.826667 0 10.24-6.826667 13.653333-10.24l34.133334-119.466667c0-10.24 0-17.066667-3.413334-20.48l-13.653333-13.653333 47.786667-64.853334c6.826667-6.826667 20.48-13.653333 30.72-13.653333 23.893333 0 44.373333 20.48 44.373333 44.373333v416.426667H51.2c-27.306667 0-51.2 23.893333-51.2 51.2v34.133333c0 23.893333 17.066667 44.373333 37.546667 47.786667l64.853333 204.8c17.066667 58.026667 68.266667 98.986667 126.293333 105.813333L208.213333 989.866667c-3.413333 6.826667 0 17.066667 6.826667 23.893333 3.413333 0 3.413333 3.413333 6.826667 3.413333 6.826667 0 13.653333-3.413333 13.653333-10.24l30.72-58.026666h491.52l30.72 58.026666c3.413333 6.826667 10.24 10.24 13.653333 10.24 3.413333 0 6.826667 0 6.826667-3.413333 6.826667-3.413333 10.24-13.653333 6.826667-23.893333l-23.893334-44.373334c58.026667-6.826667 109.226667-47.786667 126.293334-102.4l64.853333-204.8c20.48-6.826667 37.546667-27.306667 37.546667-47.786666v-34.133334c3.413333-30.72-20.48-51.2-47.786667-51.2zM167.253333 822.613333l-40.96-126.293333c-3.413333-10.24 3.413333-17.066667 10.24-20.48 10.24-3.413333 17.066667 3.413333 20.48 10.24l40.96 126.293333c6.826667 20.48 23.893333 34.133333 40.96 34.133334 10.24 0 17.066667 6.826667 17.066667 17.066666s-6.826667 17.066667-17.066667 17.066667c-30.72 0-61.44-23.893333-71.68-58.026667z"  /></svg>