<?xml version="1.0" standalone="no"?><!DOCTYPE svg PUBLIC "-//W3C//DTD SVG 1.1//EN" "http://www.w3.org/Graphics/SVG/1.1/DTD/svg11.dtd"><svg t="1564070629273" class="icon" viewBox="0 0 1177 1024" version="1.1" xmlns="http://www.w3.org/2000/svg" p-id="27810" xmlns:xlink="http://www.w3.org/1999/xlink" width="229.8828125" height="200"><defs><style type="text/css"></style></defs><path d="M966.8864 1023.2576H127.232c-69.4784 0-126.0288-57.1136-126.0288-127.3344V128.5888C1.2288 58.3936 57.7792 1.28 127.2576 1.28H970.752c69.4784 0 126.0288 57.1392 126.0288 127.3344v124.7488a42.24 42.24 0 0 1-42.0096 42.4448 42.24 42.24 0 0 1-42.0096-42.4448V128.5888c0-23.3728-18.8416-42.4448-42.0096-42.4448H127.232c-23.1424 0-41.984 19.072-41.984 42.4448v767.3344c0 23.4496 18.8416 42.4448 41.984 42.4448H966.912a42.24 42.24 0 0 0 41.984-42.4448v-131.2256c0-23.4752 18.7904-42.4448 42.0352-42.4448 23.2192 0 41.984 18.944 41.984 42.4448v131.2256c0 70.2208-56.4736 127.3344-126.0032 127.3344z" fill="#333333" p-id="27811"></path><path d="M744.5504 510.8224c0 22.9376 18.432 41.5488 41.1392 41.5488s41.1136-18.6112 41.1136-41.5488-18.4064-41.5488-41.1136-41.5488c-22.7072 0-41.1392 18.6112-41.1392 41.5488z" fill="#333333" p-id="27812"></path><path d="M1093.5808 677.8112h-420.096c-46.336 0-84.0192-38.0928-84.0192-84.8896v-169.8048c0-46.7968 37.6832-84.8896 84.0192-84.8896h420.096c46.336 0 84.0192 38.0928 84.0192 84.8896v169.8048c0 46.7968-37.6832 84.8896-84.0192 84.8896z m-420.096-254.6944v169.8048H1093.632l-0.0768-169.8048h-420.096z" fill="#333333" p-id="27813"></path></svg>